<svg width="92" height="35" fill="none" xmlns="http://www.w3.org/2000/svg"><g clip-path="url(#a)" fill="#394149"><path d="M22.1 0a13.4 13.4 0 0 0-9.474 3.925l-8.201 8.2A13.4 13.4 0 0 0 .5 21.602C.5 29 6.5 35 13.9 35a13.4 13.4 0 0 0 9.474-3.925l5.673-5.672L45.575 8.874a6.4 6.4 0 0 1 10.611 2.54l5.217-5.216A13.39 13.39 0 0 0 50.1 0a13.4 13.4 0 0 0-9.474 3.925l-22.201 22.2a6.4 6.4 0 1 1-9.05-9.05l8.2-8.2a6.4 6.4 0 0 1 10.611 2.54l5.217-5.216A13.39 13.39 0 0 0 22.1 0Z"/><path d="M46.424 26.126a6.4 6.4 0 0 1-10.61-2.54l-5.216 5.216A13.39 13.39 0 0 0 41.899 35a13.4 13.4 0 0 0 9.475-3.925l22.201-22.2a6.4 6.4 0 1 1 9.05 9.05l-8.2 8.2a6.4 6.4 0 0 1-10.611-2.54l-5.217 5.217A13.39 13.39 0 0 0 69.9 35a13.4 13.4 0 0 0 9.475-3.925l8.201-8.2a13.4 13.4 0 0 0 3.925-9.476C91.5 6 85.5 0 78.1 0a13.4 13.4 0 0 0-9.475 3.925l-22.2 22.2Z"/></g><defs><clipPath id="a"><path fill="#fff" transform="translate(.5)" d="M0 0h91v35H0z"/></clipPath></defs></svg>