<svg width="85" height="41" fill="none" xmlns="http://www.w3.org/2000/svg"><path d="M0 24.49h2.518v12.347H0V24.489Zm3.979 8.116A4.482 4.482 0 1 1 8.46 37.08a4.431 4.431 0 0 1-4.482-4.474Zm6.43 0a1.946 1.946 0 1 0-1.948 1.998 1.895 1.895 0 0 0 1.947-1.998Z" fill="#252525"/><path d="M23.066 28.376v8.041c0 2.846-2.225 4.046-4.474 4.046a4.322 4.322 0 0 1-4.004-2.048l2.166-1.25a1.931 1.931 0 0 0 1.888 1.065 1.678 1.678 0 0 0 1.948-1.813v-.78a2.988 2.988 0 0 1-2.468 1.1 4.298 4.298 0 0 1 0-8.596 3.015 3.015 0 0 1 2.468 1.1v-.84l2.476-.025Zm-2.476 4.062a2.049 2.049 0 1 0-2.049 1.965 1.915 1.915 0 0 0 2.049-1.965Zm3.928.168a4.482 4.482 0 1 1 4.483 4.474 4.432 4.432 0 0 1-4.483-4.474Zm6.43 0A1.947 1.947 0 1 0 29 34.604a1.895 1.895 0 0 0 1.93-1.998h.017Zm3.702-6.497a1.528 1.528 0 1 1 1.527 1.527 1.536 1.536 0 0 1-1.528-1.527Zm.26 2.266h2.518v8.461H34.91v-8.461Zm13.497 4.231a4.248 4.248 0 0 1-4.038 4.474 3.215 3.215 0 0 1-2.518-1.033v4.197h-2.518V28.375h2.518v.798a3.216 3.216 0 0 1 2.518-1.033 4.246 4.246 0 0 1 4.038 4.466Zm-2.518 0a2.013 2.013 0 0 0-3.439-1.373 2.014 2.014 0 0 0 1.374 3.438 1.93 1.93 0 0 0 2.048-2.065h.017Zm10.358 1.696c0 1.947-1.679 2.778-3.526 2.778a3.71 3.71 0 0 1-3.634-2.014l2.2-1.251a1.393 1.393 0 0 0 1.434.999c.613 0 .915-.193.915-.529 0-.932-4.197-.436-4.197-3.357 0-1.847 1.562-2.779 3.358-2.779a3.719 3.719 0 0 1 3.307 1.813l-2.207 1.159a1.25 1.25 0 0 0-1.142-.747c-.437 0-.705.167-.705.478.034.965 4.197.319 4.197 3.45Zm9.267-5.926v8.46h-2.519v-.788a2.897 2.897 0 0 1-2.417 1.032c-1.679 0-3.164-1.217-3.164-3.508v-5.196h2.518v4.826a1.395 1.395 0 0 0 1.519 1.537c.923 0 1.57-.538 1.57-1.738v-4.625h2.493Zm14.554 3.273v5.187H77.55v-4.97c0-.838-.411-1.392-1.217-1.392s-1.326.596-1.326 1.594v4.768h-2.518v-4.97c0-.838-.403-1.392-1.218-1.392-.814 0-1.317.596-1.317 1.594v4.768h-2.518v-8.46h2.518v.78a2.6 2.6 0 0 1 2.266-1.016 2.518 2.518 0 0 1 2.216 1.116 2.785 2.785 0 0 1 2.45-1.116c1.915 0 3.182 1.393 3.182 3.509Zm2.149-3.323a1.88 1.88 0 1 0 0-3.76 1.88 1.88 0 0 0 0 3.76Zm-53.72-10.241a8.805 8.805 0 1 0 0-17.61 8.805 8.805 0 0 0 0 17.61Zm19.683 0a8.805 8.805 0 1 0 0-17.61 8.805 8.805 0 0 0 0 17.61ZM17.618.475H.017v17.601h17.601V.475Z" fill="#252525"/></svg>