<svg width="150" height="37" fill="none" xmlns="http://www.w3.org/2000/svg"><path fill-rule="evenodd" clip-rule="evenodd" d="m19.555.592-.022-.037h-8.94L0 18.713l7.271 12.722.009-.015 2.749 4.76 21.021.095 7.383-12.658h-.05l2.728-4.724L30.68.641 19.555.592Zm6.916 12.11h.056l-5.256-9.129 7.68.034 8.73 15.278-2.732 4.734-7.161.003 2.497-4.324-3.814-6.597Zm-8.737-9.174 3.584 6.2h-4.962L7.86 24.46l-.58 1-3.847-6.732 8.866-15.2h5.434Zm-3.446 15.737 3.786-6.564h4.963L26.85 19.3l-2.498 4.325-7.546.004-2.518-4.363Zm-5.292 9.18 1.44-2.498 2.141-3.699 2.514 4.355 7.545-.004-.012.02 10.608.013-3.885 6.662-17.597-.079-2.754-4.77Z" fill="#252525"/><path d="M95.265 11.436a1.852 1.852 0 0 0 1.845-1.867c0-1.04-.827-1.845-1.845-1.845-1.04 0-1.867.806-1.867 1.845 0 1.04.827 1.867 1.867 1.867Zm-1.655 12.26h3.288V13.09H93.61v10.606Zm5.202 5.091h3.224v-6.151c.615.806 2.015 1.357 3.479 1.357 3.161 0 5.07-2.418 4.985-5.77-.085-3.414-2.058-5.472-5.006-5.472-1.506 0-2.927.658-3.521 1.633l-.17-1.294h-2.991v15.697Zm3.288-10.394c0-1.59 1.061-2.651 2.588-2.651 1.548 0 2.524 1.082 2.524 2.651 0 1.57-.976 2.652-2.524 2.652-1.527 0-2.588-1.06-2.588-2.652Zm8.748 1.952c.085 2.142 1.782 3.627 4.455 3.627 2.566 0 4.348-1.357 4.348-3.542 0-1.57-.933-2.61-2.673-3.034l-1.888-.466c-.679-.17-1.103-.34-1.103-.891 0-.552.446-.912 1.103-.912.743 0 1.23.488 1.209 1.209h2.949c-.084-2.206-1.761-3.585-4.094-3.585-2.355 0-4.115 1.4-4.115 3.521 0 1.421.785 2.588 2.885 3.14l1.866.488c.551.148.785.402.785.763 0 .53-.488.87-1.315.87-.954 0-1.463-.446-1.463-1.188h-2.949Zm13.803 3.627c1.294 0 2.588-.594 3.246-1.463l.212 1.187h3.076V13.09h-3.267v5.515c0 1.591-.467 2.461-1.973 2.461-1.167 0-1.93-.53-1.93-2.503V13.09h-3.267v6.66c0 2.525 1.4 4.222 3.903 4.222Zm11.714-.276v-5.79c0-1.782.954-2.292 1.888-2.292 1.04 0 1.719.637 1.719 1.952v6.13h3.223v-5.79c0-1.804.933-2.313 1.867-2.313 1.04 0 1.74.637 1.74 1.973v6.13h3.181V16.76c0-2.418-1.273-4.03-4.009-4.03-1.527 0-2.779.742-3.33 1.887-.637-1.145-1.739-1.888-3.5-1.888-1.167 0-2.249.53-2.885 1.38l-.127-1.019h-3.055v10.606h3.288ZM50.463 8.001h-3.48v15.697h9.631v-3.076h-6.151V8.001Zm6.484 10.372c0 3.352 2.248 5.58 5.642 5.58 3.373 0 5.621-2.228 5.621-5.58 0-3.351-2.248-5.6-5.62-5.6-3.395 0-5.643 2.249-5.643 5.6Zm3.288-.02c0-1.592.933-2.652 2.354-2.652 1.4 0 2.334 1.06 2.334 2.651 0 1.612-.934 2.673-2.334 2.673-1.421 0-2.354-1.06-2.354-2.673Zm8.501-.149c0 3.203 2.079 5.367 5.027 5.367 1.421 0 2.652-.51 3.267-1.337v1.464c0 1.464-.912 2.44-2.525 2.44-1.442 0-2.439-.68-2.503-1.888h-3.309c.297 2.906 2.546 4.857 5.622 4.857 3.627 0 5.918-2.354 5.918-6.088v-9.927h-2.949l-.17 1.082c-.593-.87-1.845-1.443-3.287-1.443-2.97 0-5.091 2.228-5.091 5.473Zm3.309-.085c0-1.527 1.018-2.545 2.312-2.545 1.506 0 2.609.997 2.609 2.545 0 1.549-1.082 2.61-2.588 2.61-1.294 0-2.333-1.061-2.333-2.61Zm9.14.254c0 3.352 2.248 5.58 5.642 5.58 3.373 0 5.622-2.228 5.622-5.58 0-3.351-2.249-5.6-5.621-5.6-3.395 0-5.643 2.249-5.643 5.6Zm3.288-.02c0-1.592.933-2.652 2.355-2.652 1.4 0 2.333 1.06 2.333 2.651 0 1.612-.933 2.673-2.334 2.673-1.42 0-2.354-1.06-2.354-2.673Z" fill="#252525"/></svg>